# xmcd
#
# Track frame offsets:
# 150
# 11133
# 35504
# 48318
# 67732
# 84668
# 95189
# 110489
# 127176
# 141196
# 149279
# 163936
#
# Disc length: 2585 seconds
#
# Revision: 0
# Processed by: cddbd v1.4PL0 Copyright (c) Steve Scherf et al.
# Submitted via: Audion 3.0.2 (http://www.panic.com/audion/)
#
DISCID=af0a170c
DTITLE=colored carp ensemble - kuroi usagi dan soundtracks
DYEAR=1900
DGENRE=
TTITLE0=vacant
TTITLE1=scroll disablement
TTITLE2=timidly
TTITLE3=petrel
TTITLE4=a wish of rails
TTITLE5=30
TTITLE6=mimi
TTITLE7=[0]-5
TTITLE8=pour
TTITLE9=watt
TTITLE10=derangement
TTITLE11=microbe transfer
EXTD=
EXTT0=
EXTT1=
EXTT2=
EXTT3=
EXTT4=
EXTT5=
EXTT6=
EXTT7=
EXTT8=
EXTT9=
EXTT10=
EXTT11=
PLAYORDER=
